<svg xmlns="http://www.w3.org/2000/svg" width="25" height="25" viewBox="0 0 25 25">
  <path id="aperture-fill-svgrepo-com" d="M49,36.5A12.5,12.5,0,1,0,36.494,49H36.5A12.5,12.5,0,0,0,49,36.5ZM27.023,31.8l6.156,1.124-6.459,7.6a10.629,10.629,0,0,1,.3-8.728Zm19.251.666a10.629,10.629,0,0,1-.3,8.728L39.815,40.07ZM45.3,30.639,41.251,35.41l-3.356-9.4A10.575,10.575,0,0,1,45.3,30.639Zm-9.476-4.7,2.1,5.893-9.813-1.792a10.618,10.618,0,0,1,.9-1.027A10.5,10.5,0,0,1,35.828,25.944ZM27.691,42.355l4.053-4.771,3.356,9.4a10.575,10.575,0,0,1-7.409-4.625Zm9.476,4.7-2.1-5.893,2.774.506h.005l7.033,1.284a10.618,10.618,0,0,1-.9,1.027,10.5,10.5,0,0,1-6.81,3.075Z" transform="translate(-23.997 -23.997)" fill="#fff"/>
</svg>
