<svg xmlns="http://www.w3.org/2000/svg" width="28" height="25" viewBox="0 0 28 25">
  <g id="photo-camera-svgrepo-com" transform="translate(-11 -38.5)">
    <g id="Group_822" data-name="Group 822" transform="translate(11 38.5)">
      <path id="Path_2842" data-name="Path 2842" d="M35.188,42.558H30.061l-1.337-3.323a1.168,1.168,0,0,0-1.08-.736H22.368a1.159,1.159,0,0,0-1.08.736L19.95,42.558H14.818A3.832,3.832,0,0,0,11,46.4V59.66a3.832,3.832,0,0,0,3.818,3.84H35.182A3.832,3.832,0,0,0,39,59.66V46.4A3.827,3.827,0,0,0,35.188,42.558ZM23.151,40.845h3.7l.686,1.707H22.459l.692-1.707ZM36.674,59.66a1.5,1.5,0,0,1-1.486,1.495H14.818a1.5,1.5,0,0,1-1.486-1.495V46.4A1.5,1.5,0,0,1,14.818,44.9H35.182A1.5,1.5,0,0,1,36.668,46.4V59.66Z" transform="translate(-11 -38.5)" fill="#fff"/>
      <path id="Path_2843" data-name="Path 2843" d="M150.815,179.7a6.415,6.415,0,1,0,6.415,6.415A6.425,6.425,0,0,0,150.815,179.7Zm0,10.485a4.07,4.07,0,1,1,4.07-4.07A4.077,4.077,0,0,1,150.815,190.185Z" transform="translate(-136.812 -171.583)" fill="#fff"/>
    </g>
  </g>
</svg>
