<svg id="focus-svgrepo-com" xmlns="http://www.w3.org/2000/svg" width="25" height="25" viewBox="0 0 25 25">
  <g id="Group_821" data-name="Group 821">
    <path id="Path_2837" data-name="Path 2837" d="M353.709,347.5a1.067,1.067,0,0,0-1.061,1.061v4.087h-4.087a1.061,1.061,0,0,0,0,2.122h5.1a1.156,1.156,0,0,0,1.112-1.112v-5.1A1.064,1.064,0,0,0,353.709,347.5Z" transform="translate(-329.77 -329.77)" fill="#fff"/>
    <path id="Path_2838" data-name="Path 2838" d="M6.209,353.648H2.122v-4.087A1.067,1.067,0,0,0,1.061,348.5,1.067,1.067,0,0,0,0,349.561v5.1a1.067,1.067,0,0,0,1.061,1.061h5.1a1.037,1.037,0,1,0,.051-2.071Z" transform="translate(0 -330.719)" fill="#fff"/>
    <path id="Path_2839" data-name="Path 2839" d="M1.061,8.219a1.047,1.047,0,0,0,1.01-1.01V3.128H6.158A1.064,1.064,0,0,0,6.158,1h-5.1A1.067,1.067,0,0,0,0,2.061v5.1A1.064,1.064,0,0,0,1.061,8.219Z" transform="translate(0 -0.949)" fill="#fff"/>
    <path id="Path_2840" data-name="Path 2840" d="M347.461,2.122h4.087V6.209a1.067,1.067,0,0,0,1.061,1.061,1.009,1.009,0,0,0,1.01-1.112v-5.1A1.067,1.067,0,0,0,352.558,0h-5.1A1.067,1.067,0,0,0,346.4,1.061,1.067,1.067,0,0,0,347.461,2.122Z" transform="translate(-328.727)" fill="#fff"/>
    <path id="Path_2841" data-name="Path 2841" d="M46.053,152.045A15.776,15.776,0,0,0,35.119,147.8a16.011,16.011,0,0,0-10.934,4.245,1.014,1.014,0,0,0,0,1.485,16.2,16.2,0,0,0,21.867,0A1.033,1.033,0,0,0,46.053,152.045ZM31.7,155.285a13.861,13.861,0,0,1-5.173-2.5,13.861,13.861,0,0,1,5.173-2.5,4.217,4.217,0,0,0-.821,2.5A4.171,4.171,0,0,0,31.7,155.285Zm3.423-.321a2.179,2.179,0,1,1,2.179-2.179A2.155,2.155,0,0,1,35.119,154.963Zm3.413.342a4.217,4.217,0,0,0,.01-5.015,13.861,13.861,0,0,1,5.173,2.5A13.3,13.3,0,0,1,38.532,155.305Z" transform="translate(-22.645 -140.259)" fill="#fff"/>
  </g>
</svg>
