<svg xmlns="http://www.w3.org/2000/svg" width="27.652" height="19.656" viewBox="0 0 27.652 19.656">
  <g id="Group_823" data-name="Group 823" transform="translate(-4130.5 -1030.752)">
    <g id="photo-camera-svgrepo-com" transform="translate(4146.964 1031.455) rotate(90)">
      <g id="Group_822" data-name="Group 822" transform="translate(0)">
        <path id="Path_2842" data-name="Path 2842" d="M15.929,2.673H12.553L11.672.485A.769.769,0,0,0,10.961,0H7.487a.764.764,0,0,0-.711.485L5.895,2.673H2.514A2.524,2.524,0,0,0,0,5.2v8.734a2.524,2.524,0,0,0,2.514,2.529H15.926a2.524,2.524,0,0,0,2.514-2.529V5.2A2.521,2.521,0,0,0,15.929,2.673ZM8,1.545h2.439l.452,1.124H7.547L8,1.545Zm8.906,12.391a.984.984,0,0,1-.979.984H2.514a.984.984,0,0,1-.979-.984V5.2a.984.984,0,0,1,.979-.984H15.926A.984.984,0,0,1,16.9,5.2v8.734Z" fill="#fff"/>
      </g>
    </g>
    <path id="Path_2844" data-name="Path 2844" d="M4155.5,1038.259l11.42-7.891" transform="translate(-9.194 1)" fill="none" stroke="#fff" stroke-width="1.5"/>
    <path id="Path_2845" data-name="Path 2845" d="M4166.92,1038.259l-11.42-7.89" transform="translate(-9.194 11.531)" fill="none" stroke="#fff" stroke-width="1.5"/>
  </g>
</svg>
