<svg id="Layer_1" data-name="Layer 1" xmlns="http://www.w3.org/2000/svg" viewBox="0 0 23 11.01"><defs><style>.cls-1,.cls-2{fill:#fff;}.cls-2{fill-rule:evenodd;}</style></defs><path class="cls-1" d="M8.49,13.65l-.7-.7L5.64,15.1l2.1,2.1.75-.7-.9-.9h3.75v-1H7.59Z" transform="translate(-2.99 -9.59)"/><path class="cls-2" d="M12,20.6a2,2,0,0,0,2-2v-7a2,2,0,0,0-2-2H5a2,2,0,0,0-2,2v7a2,2,0,0,0,2,2Zm1-2v-7a1,1,0,0,0-1-1H5a1,1,0,0,0-1,1v7a1,1,0,0,0,1,1h7A1,1,0,0,0,13,18.6Z" transform="translate(-2.99 -9.59)"/><path class="cls-1" d="M20.49,16.54l.7.7,2.15-2.15L21.24,13l-.75.7.9.9H17.64v1h3.75Z" transform="translate(-2.99 -9.59)"/><path class="cls-2" d="M17,9.59a2,2,0,0,0-2,2v7a2,2,0,0,0,2,2h7a2,2,0,0,0,2-2v-7a2,2,0,0,0-2-2Zm-1,2v7a1,1,0,0,0,1,1h7a1,1,0,0,0,1-1v-7a1,1,0,0,0-1-1H17A1,1,0,0,0,16,11.59Z" transform="translate(-2.99 -9.59)"/></svg>