<?xml version="1.0" encoding="utf-8"?>
<!-- Generator: Adobe Illustrator 26.1.0, SVG Export Plug-In . SVG Version: 6.00 Build 0)  -->
<svg version="1.1" id="Layer_1" xmlns="http://www.w3.org/2000/svg" xmlns:xlink="http://www.w3.org/1999/xlink" x="0px" y="0px"
	 viewBox="0 0 500 325" style="enable-background:new 0 0 500 325;" xml:space="preserve">
<style type="text/css">
	.st0{fill:none;}
	.st1{fill:none;stroke:#FFFFFF;stroke-width:15;}
	.st2{enable-background:new    ;}
	.st3{fill:#FFFFFF;}
</style>
<g id="Group_17" transform="translate(-1073 -423)">
	<g id="Group_1" transform="translate(939 516)">
		<g id="Rectangle_1" transform="translate(134 82)">
			<path class="st0" d="M15,0h120c8.3,0,15,6.7,15,15v120c0,8.3-6.7,15-15,15H15c-8.3,0-15-6.7-15-15V15C0,6.7,6.7,0,15,0z"/>
			<path class="st1" d="M15,7.5h120c4.1,0,7.5,3.4,7.5,7.5v120c0,4.1-3.4,7.5-7.5,7.5H15c-4.1,0-7.5-3.4-7.5-7.5V15
				C7.5,10.9,10.9,7.5,15,7.5z"/>
		</g>
		<g class="st2">
			<path class="st3" d="M193.7,184h-6.6c-0.9,0-1.2-0.5-0.9-1.6l16-56c0.3-1,1-1.6,2.2-1.6h9.2c1.2,0,2,0.5,2.2,1.6l16,56
				c0.2,1-0.1,1.6-1,1.6h-6.5c-0.6,0-0.9-0.1-1.1-0.3c-0.2-0.2-0.4-0.6-0.5-1.2l-3.5-12h-20.2l-3.5,12
				C195.1,183.5,194.6,184,193.7,184z M208.8,133.7l-8.1,29.4h16.7l-8.2-29.4H208.8z"/>
		</g>
	</g>
	<g id="Group_2" transform="translate(1114 516)">
		<g id="Rectangle_1-2" transform="translate(134 82)">
			<path class="st0" d="M15,0h120c8.3,0,15,6.7,15,15v120c0,8.3-6.7,15-15,15H15c-8.3,0-15-6.7-15-15V15C0,6.7,6.7,0,15,0z"/>
			<path class="st1" d="M15,7.5h120c4.1,0,7.5,3.4,7.5,7.5v120c0,4.1-3.4,7.5-7.5,7.5H15c-4.1,0-7.5-3.4-7.5-7.5V15
				C7.5,10.9,10.9,7.5,15,7.5z"/>
		</g>
		<g class="st2">
			<path class="st3" d="M189.4,169.6v-2.4c0-1,0.5-1.6,1.6-1.6h5.9c1,0,1.6,0.5,1.6,1.6v1.7c0,2.6,0.6,4.4,1.7,5.6
				c1.1,1.1,3,1.7,5.7,1.7h6.3c2.6,0,4.5-0.6,5.7-1.8c1.2-1.2,1.7-3.1,1.7-5.8v-2.1c0-2-0.8-3.5-2.3-4.6c-1.5-1.1-3.4-1.9-5.6-2.2
				c-2.2-0.3-4.6-0.8-7.3-1.4c-2.6-0.6-5.1-1.3-7.3-2.1c-2.2-0.8-4.1-2.3-5.6-4.5c-1.5-2.2-2.3-5-2.3-8.5v-3.9c0-4.5,1.3-8,3.8-10.5
				c2.5-2.5,6.1-3.8,10.5-3.8h9.8c4.5,0,8.1,1.3,10.6,3.8c2.5,2.5,3.8,6.1,3.8,10.5v2c0,1-0.5,1.6-1.6,1.6h-5.9
				c-1,0-1.6-0.5-1.6-1.6V140c0-2.6-0.6-4.5-1.7-5.7c-1.1-1.1-3-1.7-5.7-1.7h-5.8c-2.6,0-4.5,0.6-5.7,1.8c-1.1,1.2-1.7,3.2-1.7,6.1
				v2.9c0,2.8,2,4.6,6,5.6c1.8,0.4,3.7,0.8,5.8,1.1c2.1,0.3,4.2,0.8,6.4,1.4c2.1,0.6,4.1,1.4,5.9,2.4s3.2,2.5,4.3,4.6
				c1.1,2.1,1.7,4.6,1.7,7.5v3.6c0,4.5-1.3,8-3.8,10.5c-2.5,2.5-6.1,3.8-10.5,3.8h-10.3c-4.5,0-8-1.3-10.6-3.8
				C190.7,177.6,189.4,174.1,189.4,169.6z"/>
		</g>
	</g>
	<g id="Group_3" transform="translate(1114 341)">
		<g id="Rectangle_1-3" transform="translate(134 82)">
			<path class="st0" d="M15,0h120c8.3,0,15,6.7,15,15v120c0,8.3-6.7,15-15,15H15c-8.3,0-15-6.7-15-15V15C0,6.7,6.7,0,15,0z"/>
			<path class="st1" d="M15,7.5h120c4.1,0,7.5,3.4,7.5,7.5v120c0,4.1-3.4,7.5-7.5,7.5H15c-4.1,0-7.5-3.4-7.5-7.5V15
				C7.5,10.9,10.9,7.5,15,7.5z"/>
		</g>
		<g class="st2">
			<path class="st3" d="M196.7,184h-9.8c-1.1,0-1.7-0.5-1.9-1.6l-10.9-56c-0.1-1,0.4-1.6,1.6-1.6h7.1c1.2,0,1.8,0.5,1.8,1.6
				l7.5,48.2h0.6l10.9-48.4c0.1-0.9,0.7-1.4,1.7-1.4h7.7c1,0,1.6,0.5,1.7,1.4l10.9,48.4h0.6l7.5-48.1c0.1-1.1,0.7-1.7,1.8-1.7h7.1
				c1.2,0,1.7,0.6,1.6,1.7L233,182.4c-0.2,1-0.8,1.6-1.8,1.6h-9.8c-1,0-1.7-0.5-1.8-1.6l-10.4-46.6h-0.4l-10.4,46.6
				C198.2,183.5,197.7,184,196.7,184z"/>
		</g>
	</g>
	<g id="Group_4" transform="translate(1289 515)">
		<g id="Rectangle_1-4" transform="translate(134 82)">
			<path class="st0" d="M15,0h120c8.3,0,15,6.7,15,15v120c0,8.3-6.7,15-15,15H15c-8.3,0-15-6.7-15-15V15C0,6.7,6.7,0,15,0z"/>
			<path class="st1" d="M15,7.5h120c4.1,0,7.5,3.4,7.5,7.5v120c0,4.1-3.4,7.5-7.5,7.5H15c-4.1,0-7.5-3.4-7.5-7.5V15
				C7.5,10.9,10.9,7.5,15,7.5z"/>
		</g>
		<g class="st2">
			<path class="st3" d="M190.2,182.4v-56c0-1,0.5-1.6,1.6-1.6h22.6c4.5,0,8,1.2,10.5,3.7c2.5,2.5,3.8,6,3.8,10.5v30.6
				c0,4.5-1.3,8-3.8,10.5c-2.5,2.5-6.1,3.8-10.5,3.8h-22.6C190.7,184,190.2,183.5,190.2,182.4z M200.1,176.2h13
				c4.4,0,6.6-2.3,6.6-6.8v-29.9c0-4.5-2.2-6.8-6.6-6.8h-13c-0.7,0-1,0.3-1,0.9v41.6C199.1,175.8,199.4,176.2,200.1,176.2z"/>
		</g>
	</g>
</g>
</svg>
