<svg xmlns="http://www.w3.org/2000/svg" width="150" height="325" viewBox="0 0 150 325">
  <g id="pitch" transform="translate(-134 -522)">
    <g id="Group_13" data-name="Group 13" transform="translate(0 440)">
      <g id="Rectangle_1" data-name="Rectangle 1" transform="translate(134 82)" fill="none" stroke="#fff" stroke-width="15">
        <rect width="150" height="150" rx="15" stroke="none"/>
        <rect x="7.5" y="7.5" width="135" height="135" rx="7.5" fill="none"/>
      </g>
      <g id="east_white_48dp" transform="translate(159 207) rotate(-90)">
        <rect id="Rectangle_2" data-name="Rectangle 2" width="100" height="100" fill="none"/>
        <path id="Path_3" data-name="Path 3" d="M53.89,58.035,48.045,52.19,67.031,33.163H0V24.872H67.031L48,5.845,53.89,0,82.908,29.018Z" transform="translate(8.291 21.238)" fill="#fff"/>
      </g>
    </g>
    <g id="Group_22" data-name="Group 22" transform="translate(0 615)">
      <g id="Rectangle_1-2" data-name="Rectangle 1" transform="translate(134 82)" fill="none" stroke="#fff" stroke-width="15">
        <rect width="150" height="150" rx="15" stroke="none"/>
        <rect x="7.5" y="7.5" width="135" height="135" rx="7.5" fill="none"/>
      </g>
      <g id="east_white_48dp-2" data-name="east_white_48dp" transform="translate(259 107) rotate(90)">
        <rect id="Rectangle_2-2" data-name="Rectangle 2" width="100" height="100" fill="none"/>
        <path id="Path_3-2" data-name="Path 3" d="M53.89,0,48.045,5.845,67.031,24.872H0v8.291H67.031L48,52.19l5.886,5.845L82.908,29.018Z" transform="translate(8.291 20.727)" fill="#fff"/>
      </g>
    </g>
  </g>
</svg>
