<?xml version="1.0" encoding="utf-8"?>
<!-- Generator: Adobe Illustrator 26.1.0, SVG Export Plug-In . SVG Version: 6.00 Build 0)  -->
<svg version="1.1" xmlns="http://www.w3.org/2000/svg" xmlns:xlink="http://www.w3.org/1999/xlink" x="0px" y="0px"
	 viewBox="0 0 325 150" style="enable-background:new 0 0 325 150;" xml:space="preserve">
<style type="text/css">
	.st0{display:none;}
	.st1{display:inline;fill:#F23333;stroke:#000000;stroke-miterlimit:10;}
	.st2{fill:none;}
	.st3{fill:none;stroke:#FFFFFF;stroke-width:15;}
	.st4{enable-background:new    ;}
	.st5{fill:#FFFFFF;}
</style>
<g id="Layer_2" class="st0">
	<rect x="-174" y="-202" class="st1" width="952" height="497"/>
</g>
<g id="Layer_1">
	<g id="Group_20" transform="translate(-574 -302)">
		<g id="Group_7" transform="translate(440 220)">
			<g id="Rectangle_1" transform="translate(134 82)">
				<path class="st2" d="M15,0h120c8.3,0,15,6.7,15,15v120c0,8.3-6.7,15-15,15H15c-8.3,0-15-6.7-15-15V15C0,6.7,6.7,0,15,0z"/>
				<path class="st3" d="M15,7.5h120c4.1,0,7.5,3.4,7.5,7.5v120c0,4.1-3.4,7.5-7.5,7.5H15c-4.1,0-7.5-3.4-7.5-7.5V15
					C7.5,10.9,10.9,7.5,15,7.5z"/>
			</g>
			<g class="st4">
				<path class="st5" d="M222.2,196.2h-5.2c-1.3,0-2.3-0.5-2.9-1.6l-6.3-10.7h-4.2c-4.5,0-8.1-1.3-10.6-3.8c-2.5-2.5-3.8-6-3.8-10.5
					v-30.6c0-4.5,1.3-8,3.8-10.5c2.5-2.5,6-3.7,10.6-3.7h10.7c4.5,0,8.1,1.2,10.5,3.7c2.5,2.5,3.7,6,3.7,10.5v30.6c0,4-1,7.2-3,9.6
					c-2,2.4-4.8,3.9-8.4,4.4l6.2,10.6c0.3,0.6,0.3,1.1,0.1,1.4C223.2,196.1,222.8,196.2,222.2,196.2z M205,176.2h8
					c4.4,0,6.6-2.3,6.6-6.8v-29.9c0-4.5-2.2-6.8-6.6-6.8h-8c-4.4,0-6.6,2.3-6.6,6.8v29.9C198.4,173.9,200.6,176.2,205,176.2z"/>
			</g>
		</g>
		<g id="Group_8" transform="translate(615 220)">
			<g id="Rectangle_1-2" transform="translate(134 82)">
				<path class="st2" d="M15,0h120c8.3,0,15,6.7,15,15v120c0,8.3-6.7,15-15,15H15c-8.3,0-15-6.7-15-15V15C0,6.7,6.7,0,15,0z"/>
				<path class="st3" d="M15,7.5h120c4.1,0,7.5,3.4,7.5,7.5v120c0,4.1-3.4,7.5-7.5,7.5H15c-4.1,0-7.5-3.4-7.5-7.5V15
					C7.5,10.9,10.9,7.5,15,7.5z"/>
			</g>
			<g class="st4">
				<path class="st5" d="M224.6,184h-29.4c-1,0-1.6-0.5-1.6-1.6v-56c0-1,0.5-1.6,1.6-1.6h29.4c1,0,1.5,0.5,1.5,1.6v4.7
					c0,1-0.5,1.6-1.5,1.6h-21c-0.7,0-1.1,0.3-1.1,0.9v15.5c0,0.6,0.4,0.9,1.1,0.9h17.8c1.1,0,1.7,0.5,1.7,1.6v4.7
					c0,1-0.6,1.6-1.7,1.6h-17.8c-0.7,0-1.1,0.3-1.1,0.9v16.4c0,0.7,0.4,1,1.1,1h21c1,0,1.5,0.5,1.5,1.6v4.7
					C226.1,183.5,225.6,184,224.6,184z"/>
			</g>
		</g>
	</g>
</g>
</svg>
