<?xml version="1.0" encoding="utf-8"?>
<!-- Generator: Adobe Illustrator 26.1.0, SVG Export Plug-In . SVG Version: 6.00 Build 0)  -->
<svg version="1.1" id="Layer_1" xmlns="http://www.w3.org/2000/svg" xmlns:xlink="http://www.w3.org/1999/xlink" x="0px" y="0px"
	 viewBox="0 0 325 150" style="enable-background:new 0 0 325 150;" xml:space="preserve">
<style type="text/css">
	.st0{fill:none;}
	.st1{fill:none;stroke:#FFFFFF;stroke-width:15;}
	.st2{enable-background:new    ;}
	.st3{fill:#FFFFFF;}
</style>
<g id="Group_21" transform="translate(-134 -302)">
	<g id="Group_5" transform="translate(0 220)">
		<g id="Rectangle_1" transform="translate(134 82)">
			<path class="st0" d="M15,0h120c8.3,0,15,6.7,15,15v120c0,8.3-6.7,15-15,15H15c-8.3,0-15-6.7-15-15V15C0,6.7,6.7,0,15,0z"/>
			<path class="st1" d="M15,7.5h120c4.1,0,7.5,3.4,7.5,7.5v120c0,4.1-3.4,7.5-7.5,7.5H15c-4.1,0-7.5-3.4-7.5-7.5V15
				C7.5,10.9,10.9,7.5,15,7.5z"/>
		</g>
		<g class="st2">
			<path class="st3" d="M198.1,184h-5.8c-1,0-1.6-0.5-1.6-1.6v-56c0-1,0.5-1.6,1.6-1.6h21.5c4.5,0,8,1.3,10.5,3.8
				c2.5,2.5,3.8,6.1,3.8,10.5v7.7c0,7.1-2.9,11.5-8.7,13.3v0.4l10.2,21.5c0.7,1.2,0.3,1.8-1.2,1.8h-5.7c-1.5,0-2.4-0.5-2.9-1.6
				l-9.8-21.2h-9.3c-0.7,0-1.1,0.3-1.1,0.9v20.2C199.7,183.5,199.2,184,198.1,184z M200.7,153.9h11.7c4.5,0,6.8-2.2,6.8-6.7v-7.7
				c0-4.5-2.3-6.8-6.8-6.8h-11.7c-0.7,0-1,0.3-1,0.9V153C199.7,153.6,200,153.9,200.7,153.9z"/>
		</g>
	</g>
	<g id="Group_6" transform="translate(175 220)">
		<g id="Rectangle_1-2" transform="translate(134 82)">
			<path class="st0" d="M15,0h120c8.3,0,15,6.7,15,15v120c0,8.3-6.7,15-15,15H15c-8.3,0-15-6.7-15-15V15C0,6.7,6.7,0,15,0z"/>
			<path class="st1" d="M15,7.5h120c4.1,0,7.5,3.4,7.5,7.5v120c0,4.1-3.4,7.5-7.5,7.5H15c-4.1,0-7.5-3.4-7.5-7.5V15
				C7.5,10.9,10.9,7.5,15,7.5z"/>
		</g>
		<g class="st2">
			<path class="st3" d="M202.2,184h-5.8c-1,0-1.6-0.5-1.6-1.6v-56c0-1,0.5-1.6,1.6-1.6h28.9c1,0,1.6,0.5,1.6,1.6v4.7
				c0,1-0.5,1.6-1.6,1.6h-20.4c-0.7,0-1.1,0.3-1.1,0.9V151c0,0.7,0.4,1,1.1,1h17.8c1.1,0,1.7,0.5,1.7,1.6v4.6c0,1.1-0.6,1.7-1.7,1.7
				h-17.8c-0.7,0-1.1,0.3-1.1,0.9v21.7C203.8,183.5,203.2,184,202.2,184z"/>
		</g>
	</g>
</g>
</svg>
