<svg id="Layer_1" data-name="Layer 1" xmlns="http://www.w3.org/2000/svg" viewBox="0 0 11 23"><defs><style>.cls-1,.cls-2{fill:#fff;}.cls-2{fill-rule:evenodd;}</style></defs><path class="cls-1" d="M15.94,9.1l.7-.7L14.49,6.25l-2.1,2.1.7.75.9-.9V12h1V8.2Z" transform="translate(-8.99 -3.6)"/><path class="cls-2" d="M9,12.6a2,2,0,0,0,2,2h7a2,2,0,0,0,2-2v-7a2,2,0,0,0-2-2H11a2,2,0,0,0-2,2Zm2,1h7a1,1,0,0,0,1-1v-7a1,1,0,0,0-1-1H11a1,1,0,0,0-1,1v7A1,1,0,0,0,11,13.6Z" transform="translate(-8.99 -3.6)"/><path class="cls-1" d="M13,21.1l-.7.7L14.49,24l2.1-2.1-.7-.75L15,22V18.25H14V22Z" transform="translate(-8.99 -3.6)"/><path class="cls-2" d="M20,17.6a2,2,0,0,0-2-2H11a2,2,0,0,0-2,2v7a2,2,0,0,0,2,2h7a2,2,0,0,0,2-2Zm-2-1H11a1,1,0,0,0-1,1v7a1,1,0,0,0,1,1h7a1,1,0,0,0,1-1v-7A1,1,0,0,0,18,16.6Z" transform="translate(-8.99 -3.6)"/></svg>