<?xml version="1.0" encoding="utf-8"?>
<!-- Generator: Adobe Illustrator 26.2.1, SVG Export Plug-In . SVG Version: 6.00 Build 0)  -->
<svg version="1.1" id="Layer_1" xmlns="http://www.w3.org/2000/svg" xmlns:xlink="http://www.w3.org/1999/xlink" x="0px" y="0px"
	 viewBox="0 0 300 150.6" style="enable-background:new 0 0 300 150.6;" xml:space="preserve">
<style type="text/css">
	.st0{fill:none;}
	.st1{fill:none;stroke:#FFFFFF;stroke-width:15;}
	.st2{enable-background:new    ;}
	.st3{fill:#FFFFFF;}
</style>
<g id="Group_17" transform="translate(-1073 -423)">
	<g id="Group_1" transform="translate(939 516)">
		<g id="Rectangle_1" transform="translate(134 82)">
			<path class="st0" d="M15-174.4h120c8.3,0,15,6.7,15,15v120c0,8.3-6.7,15-15,15H15c-8.3,0-15-6.7-15-15v-120
				C0-167.7,6.7-174.4,15-174.4z"/>
			<path class="st1" d="M15-166.9h120c4.1,0,7.5,3.4,7.5,7.5v120c0,4.1-3.4,7.5-7.5,7.5H15c-4.1,0-7.5-3.4-7.5-7.5v-120
				C7.5-163.5,10.9-166.9,15-166.9z"/>
		</g>
		<g class="st2">
			<path class="st3" d="M193.7,9.6h-6.6c-0.9,0-1.2-0.5-0.9-1.6l16-56c0.3-1,1-1.6,2.2-1.6h9.2c1.2,0,2,0.5,2.2,1.6l16,56
				c0.2,1-0.1,1.6-1,1.6h-6.5c-0.6,0-0.9-0.1-1.1-0.3c-0.2-0.2-0.4-0.6-0.5-1.2l-3.5-12H199l-3.5,12C195.1,9.1,194.6,9.6,193.7,9.6z
				 M208.8-40.7l-8.1,29.4h16.7l-8.2-29.4H208.8z"/>
		</g>
	</g>
	<g id="Group_4" transform="translate(1289 515)">
		<g id="Rectangle_1-4" transform="translate(134 82)">
			<path class="st0" d="M-185-174h120c8.3,0,15,6.7,15,15v120c0,8.3-6.7,15-15,15h-120c-8.3,0-15-6.7-15-15v-120
				C-200-167.3-193.3-174-185-174z"/>
			<path class="st1" d="M-185-166.5h120c4.1,0,7.5,3.4,7.5,7.5v120c0,4.1-3.4,7.5-7.5,7.5h-120c-4.1,0-7.5-3.4-7.5-7.5v-120
				C-192.5-163.1-189.1-166.5-185-166.5z"/>
		</g>
		<g class="st2">
			<path class="st3" d="M-9.8,8.4v-56c0-1,0.5-1.6,1.6-1.6h22.6c4.5,0,8,1.2,10.5,3.7c2.5,2.5,3.8,6,3.8,10.5v30.6
				c0,4.5-1.3,8-3.8,10.5s-6.1,3.8-10.5,3.8H-8.2C-9.3,10-9.8,9.5-9.8,8.4z M0.1,2.2h13c4.4,0,6.6-2.3,6.6-6.8v-29.9
				c0-4.5-2.2-6.8-6.6-6.8h-13c-0.7,0-1,0.3-1,0.9V1.2C-0.9,1.8-0.6,2.2,0.1,2.2z"/>
		</g>
	</g>
</g>
</svg>
